<?xml version="1.0" standalone="no"?>
<!DOCTYPE svg PUBLIC "-//W3C//DTD SVG 20010904//EN"
 "http://www.w3.org/TR/2001/REC-SVG-20010904/DTD/svg10.dtd">
<svg version="1.0" xmlns="http://www.w3.org/2000/svg"
 width="259.000000pt" height="259.000000pt" viewBox="0 0 259.000000 259.000000"
 preserveAspectRatio="xMidYMid meet">
<metadata>
Created by potrace 1.14, written by Peter Selinger 2001-2017
</metadata>
<g transform="translate(0.000000,259.000000) scale(0.100000,-0.100000)"
fill="#000000" stroke="none">
<path d="M830 2080 c-8 -6 -42 -9 -75 -8 -33 1 -66 -1 -72 -5 -7 -5 -13 -5
-13 -2 0 10 -75 -51 -107 -87 -16 -16 -35 -37 -44 -47 -9 -9 -37 -60 -62 -113
-25 -53 -54 -101 -64 -106 -52 -28 -173 -178 -173 -215 0 -11 14 -67 32 -125
24 -82 39 -115 65 -143 18 -19 30 -39 26 -44 -5 -4 -3 -5 3 -2 17 10 49 -31
81 -103 22 -47 52 -87 111 -147 45 -46 84 -83 87 -83 3 0 47 -24 98 -53 51
-29 117 -62 147 -73 30 -10 124 -53 208 -96 98 -49 159 -74 172 -71 11 3 40
-2 63 -10 23 -9 92 -29 152 -44 99 -25 126 -28 270 -27 149 1 164 2 215 26 70
32 114 69 146 125 26 43 26 47 19 151 -5 59 -9 186 -9 282 l-1 175 43 82 c41
78 42 84 42 174 0 80 -3 98 -25 135 -14 23 -40 52 -59 63 -37 23 -56 63 -56
120 0 29 -8 45 -37 75 -58 59 -173 122 -251 136 -37 7 -80 18 -97 24 -16 7
-72 13 -124 15 -52 1 -99 5 -104 8 -29 18 -583 29 -607 13z"/>
</g>
</svg>
